<?xml version="1.0" standalone="no"?>
<!DOCTYPE svg PUBLIC "-//W3C//DTD SVG 20010904//EN"
 "http://www.w3.org/TR/2001/REC-SVG-20010904/DTD/svg10.dtd">
<svg version="1.0" xmlns="http://www.w3.org/2000/svg"
 width="192.000000pt" height="192.000000pt" viewBox="0 0 192.000000 192.000000"
 preserveAspectRatio="xMidYMid meet">

<g transform="translate(0.000000,192.000000) scale(0.100000,-0.100000)"
fill="#000000" stroke="none">
<path d="M875 1287 l-29 -25 -28 21 c-37 27 -74 15 -104 -33 -12 -19 -34 -47
-48 -61 -22 -23 -24 -28 -10 -33 41 -16 77 -6 111 30 39 41 58 40 61 -6 7 -91
106 -139 183 -87 96 64 58 203 -59 215 -41 3 -53 0 -77 -21z"/>
<path d="M713 1060 c-117 -67 -209 -195 -252 -350 -33 -117 -38 -110 87 -110
l108 0 12 77 c12 74 64 192 88 200 5 2 27 -24 48 -56 73 -115 64 -111 230
-111 79 0 151 3 160 6 19 7 21 57 3 72 -7 6 -64 13 -128 14 l-114 3 -41 110
c-54 147 -52 144 -85 160 -40 21 -57 19 -116 -15z"/>
<path d="M1436 917 c-10 -7 -35 -63 -56 -123 l-37 -109 -94 -3 c-101 -3 -122
-12 -117 -51 l3 -26 126 -3 c93 -2 129 1 136 10 6 7 32 73 57 147 44 126 46
135 30 152 -20 23 -25 23 -48 6z"/>
</g>
</svg>
